<?xml version="1.0" encoding="UTF-8" standalone="no"?>
<svg
   fill="none"
   height="767"
   viewBox="0 0 1440 767"
   width="1440"
   version="1.1"
   id="svg96"
   sodipodi:docname="hero-bg.svg"
   inkscape:version="1.2.1 (9c6d41e410, 2022-07-14)"
   xmlns:inkscape="http://www.inkscape.org/namespaces/inkscape"
   xmlns:sodipodi="http://sodipodi.sourceforge.net/DTD/sodipodi-0.dtd"
   xmlns="http://www.w3.org/2000/svg"
   xmlns:svg="http://www.w3.org/2000/svg">
  <defs
     id="defs100" />
  <sodipodi:namedview
     id="namedview98"
     pagecolor="#ffffff"
     bordercolor="#000000"
     borderopacity="0.25"
     inkscape:showpageshadow="2"
     inkscape:pageopacity="0.0"
     inkscape:pagecheckerboard="0"
     inkscape:deskcolor="#d1d1d1"
     showgrid="false"
     inkscape:zoom="0.90972222"
     inkscape:cx="535.32825"
     inkscape:cy="384.18321"
     inkscape:window-width="1920"
     inkscape:window-height="1001"
     inkscape:window-x="-9"
     inkscape:window-y="-9"
     inkscape:window-maximized="1"
     inkscape:current-layer="svg96" />
  <path
     d="m-14.8936 273.223c3.6985-23.916 20.64073-43.806 39.6425-58.829 52.1994-41.35 125.4821-54.514 188.8431-33.939 63.362 20.576 126.106 43.663 143.978 107.78 6.113 21.881 8.527 44.758 16.167 66.152 20.043 56.063 78.466 96.02 138.04 94.405 76.273-2.058 128.14-59.891 191.368-93.277 45.844-24.204 114.163-1.515 139.233 56.119 22.523 51.749-14.13 106.529-25.956 156.132-12.114 50.842 7.818 101.153 49.232 133.123 41.746 32.257 105.13 48.452 156.846 35.797 50.03-12.235 84.13-49.846 122.07-81.861 49.16-41.483 127.43-43.319 187.69-35.443 28.79 3.761 58.22 9.823 86.53 3.407 49.23-11.15 57.18-52.412 57.67-95.776.68-60.09.02-120.202-1.11-180.27-2.24-118.233-6.42-236.444-6.42-354.72131h-1483.8014v281.20131z"
     fill="#ebf4ff"
     id="path52" />
  <path
     d="m 627.67895,509.5014 c 2.635,9.624 7.264,18.938 13.088,27.169 23.587,33.363 62.144,64.094 105.174,47.412 32.777,-12.699 57.183,-48.872 70.869,-79.891 10.343,-23.43 11.561,-49.514 -2.103,-72.059 -23.299,-38.452 -72.375,-43.276 -109.958,-24.713 -25.004,12.345 -50.428,31.77 -68.212,53.342 -11.914,14.491 -13.398,32.08 -8.858,48.74 z"
     fill="#ebf4ff"
     id="path56"
     style="fill:#8dbe22;fill-opacity:1" />
  <path
     style="fill:#ef233c;fill-opacity:1;stroke-width:1.09924"
     d="m 1201.189,451.83495 c -49.02,-6.21804 -90.1466,-23.58864 -121.8976,-51.48586 -17.5634,-15.43167 -29.4522,-31.60036 -51.4914,-70.02848 -16.2767,-28.38028 -20.5827,-35.37344 -28.42806,-46.16794 -32.4407,-44.63526 -82.46139,-71.4875 -147.43471,-79.1463 -12.08882,-1.42498 -45.02267,-1.40885 -59.54595,0.0291 -46.06657,4.56128 -88.92365,16.82675 -163.0783,46.67211 -49.76976,20.03107 -65.73228,24.49136 -91.23664,25.49355 -24.42373,0.95972 -42.31889,-3.04435 -67.05344,-15.00331 -29.30512,-14.16877 -46.52818,-27.66809 -100.1648,-78.50849 -40.26231,-38.16326 -58.4379,-51.65581 -89.74165,-66.61914 -23.35619,-11.16437 -50.93611,-19.187637 -79.95614,-23.260027 -15.87669,-2.22799 -58.93122,-1.91414 -74.74809,0.54488 C 75.961758,102.19848 33.544158,119.95118 -1.7383421,147.9889 l -8.15479,6.4803 v -83.005587 -83.0056 H 731.54199 1472.9771 l 0.055,33.25191 c 0.031,18.28855 0.2434,35.97252 0.4732,39.29771 0.2299,3.32519 0.7388,30.92768 1.131,61.338857 0.3924,30.41118 0.8725,56.62797 1.0672,58.25954 0.1945,1.63156 0.7085,23.00007 1.1421,47.48557 0.4335,24.4855 0.9226,45.26107 1.0869,46.16794 0.1643,0.90687 0.6622,23.7136 1.1062,50.68163 l 0.8074,49.03278 -7.5568,6.04145 c -31.4986,25.18211 -75.4159,45.07149 -129.4592,58.62981 -21.5113,5.39673 -41.0388,9.22232 -61.6702,12.0817 -17.9914,2.4935 -64.0211,3.13126 -79.9712,1.10804 z m 90.8612,-18.71898 c 0.4288,-1.70851 1.7335,-2.99437 3.484,-3.43372 l 2.7986,-0.70238 -3.3649,-2.0463 c -1.8507,-1.12546 -3.3649,-2.79556 -3.3649,-3.71131 0,-0.91576 -0.4946,-1.66501 -1.0992,-1.66501 -0.6046,0 -1.0993,0.74925 -1.0993,1.66501 0,0.91575 -1.5142,2.58585 -3.3648,3.71131 l -3.3649,2.0463 2.7985,0.70238 c 1.7506,0.43935 3.0553,1.72521 3.4841,3.43372 0.377,1.50224 1.0728,2.73135 1.5464,2.73135 0.4735,0 1.1693,-1.22911 1.5464,-2.73135 z m -52.1113,-53.99727 c 0,-0.90037 1.5664,-2.29566 3.4808,-3.10064 3.3208,-1.39628 3.3679,-1.49944 1.0234,-2.24355 -1.3516,-0.42898 -3.4108,-2.34343 -4.576,-4.25434 -1.9351,-3.17358 -2.1188,-3.25582 -2.1226,-0.94996 0,1.62897 -1.1337,3.17269 -3.1886,4.35204 -3.1354,1.79953 -3.1482,1.84552 -0.8244,2.99129 1.2981,0.64 2.8336,2.23364 3.4125,3.54142 1.129,2.551 2.7949,2.35057 2.7949,-0.33626 z m 64.6176,-26.96758 3.61,-1.80307 -3.2675,-1.13904 c -2.0442,-0.71262 -4.0525,-2.66922 -5.3643,-5.22639 l -2.0971,-4.08733 -0.7004,3.50245 c -0.5552,2.77584 -1.6735,3.94408 -5.3906,5.63126 -3.5465,1.60972 -4.0749,2.13471 -2.1669,2.15296 3.2389,0.031 7.904,4.67931 7.9723,7.94365 0.045,2.14465 0.3335,1.94599 1.9236,-1.32409 1.0432,-2.14524 3.468,-4.64502 5.4809,-5.6504 z m -193.5774,-8.03549 2.3598,-1.04467 -2.3577,-1.17547 c -1.2968,-0.6465 -2.9018,-2.26659 -3.5666,-3.6002 -1.2082,-2.42337 -1.2103,-2.42289 -3.6272,0.84609 -1.3299,1.79895 -3.269,3.30218 -4.3089,3.34051 -1.4427,0.0532 -1.3198,0.29963 0.5184,1.04011 1.3251,0.53373 3.2489,2.25202 4.2753,3.81841 l 1.8661,2.84797 1.2405,-2.51405 c 0.6821,-1.38272 2.3023,-2.98413 3.6003,-3.5587 z m 99.7609,-30.91405 c 1.5495,-0.3889 2.8172,-1.0945 2.8172,-1.568 0,-0.47349 -1.2677,-1.17909 -2.8172,-1.56799 -1.7308,-0.43439 -3.3606,-1.99918 -4.226,-4.05736 l -1.4087,-3.35028 -1.4051,3.39208 c -0.9526,2.29985 -2.5119,3.70504 -4.8426,4.36398 l -3.4378,0.97189 3.4688,1.29442 c 2.1543,0.80399 3.9892,2.55129 4.8426,4.61166 l 1.3741,3.31723 1.4087,-3.35027 c 0.8654,-2.05818 2.4952,-3.62298 4.226,-4.05736 z m -69.3885,-2.39242 c 0.9197,-4.49272 3.0416,-6.7816 7.8055,-8.41932 l 4.273,-1.46898 -3.9956,-1.31863 c -4.6387,-1.53093 -8.4268,-5.8248 -8.4268,-9.552 0,-1.42992 -0.4947,-2.59985 -1.0992,-2.59985 -0.6046,0 -1.0993,1.16993 -1.0993,2.59985 0,3.7272 -3.7881,8.02107 -8.4268,9.552 l -3.9955,1.31863 4.2729,1.46898 c 4.7639,1.63772 6.8858,3.9266 7.8055,8.41932 0.3403,1.66259 0.9897,3.0229 1.4432,3.0229 0.4534,0 1.1028,-1.36031 1.4431,-3.0229 z m 181.7393,-16.35199 2.7229,-0.68341 -3.2795,-1.99438 c -1.8037,-1.09691 -3.477,-3.13799 -3.7183,-4.53574 -0.4334,-2.51067 -0.4537,-2.50561 -1.6836,0.4199 -0.6847,1.6287 -2.5768,3.65915 -4.2048,4.51214 l -2.9599,1.55087 2.9482,0.73994 c 1.789,0.449 3.4166,1.91645 4.1396,3.73215 l 1.1913,2.9922 1.0606,-3.02514 c 0.639,-1.82263 2.1429,-3.29679 3.7835,-3.70853 z m -61.1672,-12.15764 c 1.5115,-0.72819 3.7374,-1.66782 4.9466,-2.08806 1.8787,-0.65294 1.6797,-0.88117 -1.3672,-1.56895 -4.7292,-1.06743 -6.7953,-2.9226 -9.1558,-8.22113 -1.5054,-3.37902 -1.9811,-3.83362 -2.0406,-1.95019 -0.1134,3.5856 -5.5638,9.12124 -9.9866,10.14262 l -3.8315,0.88486 3.5569,0.81242 c 4.6529,1.06275 8.96,5.1438 9.7856,9.27194 l 0.6597,3.29823 2.3425,-4.62889 c 1.2883,-2.54587 3.579,-5.22466 5.0904,-5.95285 z m -72.397,-22.26212 3.2794,-1.99438 -2.7229,-0.68341 c -1.6405,-0.41174 -3.1445,-1.8859 -3.7834,-3.70854 l -1.0606,-3.02513 -1.1913,2.9922 c -0.723,1.8157 -2.3506,3.28314 -4.1397,3.73215 l -2.9481,0.73994 2.9599,1.55087 c 1.628,0.85298 3.5201,2.88344 4.2048,4.51213 1.2298,2.92551 1.2502,2.93058 1.6836,0.4199 0.2413,-1.39774 1.9145,-3.43883 3.7183,-4.53573 z"
     id="path329" />
  <path
     style="fill:#e9561f;fill-opacity:1;stroke-width:1.09924"
     d="m 962.46854,745.25702 c -53.93027,-8.21119 -100.68762,-35.88806 -125.19792,-74.10783 -14.42339,-22.49092 -21.71899,-52.84649 -18.92899,-78.75982 1.64859,-15.312 4.98321,-27.77903 14.46019,-54.06185 21.45667,-59.50641 24.97566,-79.03531 19.02015,-105.55381 -4.77987,-21.28359 -21.74769,-45.81534 -41.68456,-60.26674 -7.93305,-5.75034 -26.07361,-14.19741 -36.27481,-16.8912 -11.08652,-2.92758 -29.31516,-3.98945 -39.93578,-2.32636 -18.96468,2.96968 -30.34963,9.04271 -83.72834,44.66285 -51.99628,34.69762 -71.2906,44.70553 -101.12977,52.45572 -16.28687,4.23023 -42.86318,5.41917 -58.87337,2.63383 -44.30199,-7.70735 -84.74296,-37.32276 -104.87653,-76.8023 -6.20482,-12.16692 -10.71855,-26.04635 -14.9333,-45.9189 -10.73819,-50.63064 -17.09048,-65.02012 -37.85046,-85.74046 -20.49499,-20.45586 -48.16922,-35.28558 -96.51306,-51.71821 -40.04552,-13.61194 -53.29812,-15.92405 -85.97619,-14.99979 -17.12478,0.48435 -24.13999,1.17577 -34.8864,3.43843 -59.48453,12.5245 -110.8522688,49.35164 -123.5292684,88.56202 -1.9303286,5.97057 -1.9553866,5.37321 -2.0137656,-48.00636 l -0.05911,-54.05217 5.7709923,-5.10918 C 11.771687,148.13716 49.293922,127.28248 74.198478,118.85919 101.98549,109.46099 127.0537,105.0998 158.29008,104.2295 c 57.80736,-1.61059 108.54662,12.54605 154.44275,43.09072 16.80749,11.18568 25.69181,18.53907 50.89469,42.12466 55.12923,51.59155 60.69607,56.40526 80.57534,69.67456 20.58191,13.73831 37.22702,21.39484 58.40658,26.86624 10.69374,2.76256 13.6329,3.0559 30.52033,3.04607 28.47238,-0.0166 42.91712,-3.76112 93.98474,-24.36401 74.64705,-30.11585 113.49507,-41.50472 160.48181,-47.04761 17.47663,-2.06167 51.87226,-2.08563 68.20119,-0.0475 48.14758,6.0096 88.04166,23.36149 119.65079,52.04198 16.21574,14.71333 27.1713,29.96623 49.6158,69.07755 24.2093,42.18652 37.2116,59.78867 55.6321,75.31325 30.3481,25.57706 68.0347,41.81309 113.6244,48.95135 15.6485,2.45019 62.3862,2.79859 80.2442,0.59817 78.5339,-9.6767 149.5637,-34.73521 194.1128,-68.48081 l 11.0899,-8.40049 0.6453,53.44182 c 0.8313,68.82945 -0.4298,117.81227 -3.3851,131.48761 -4.0514,18.74721 -10.1539,30.31449 -21.6823,41.09878 -7.86,7.35262 -17.0246,12.19044 -29.8599,15.76241 -7.4648,2.07741 -11.4037,2.38753 -30.5542,2.4056 -18.8622,0.0178 -25.5108,-0.47683 -46.8095,-3.48236 -75.6541,-10.67577 -131.5115,-5.04776 -175.1962,17.6522 -11.6816,6.07013 -21.3772,13.46346 -45.6585,34.8169 -25.3726,22.31313 -35.1232,30.18617 -48.3886,39.07068 -18.8503,12.62507 -37.2344,20.68748 -57.6877,25.29919 -11.0044,2.48121 -45.24749,3.08216 -58.72226,1.03056 z m 21.89788,-50.51413 c 0,-0.89293 1.29113,-2.46949 2.86917,-3.50346 l 2.86917,-1.87995 -2.42323,-0.89641 c -1.33277,-0.49302 -2.6816,-1.8844 -2.99738,-3.09196 -0.31578,-1.20754 -0.95341,-2.19554 -1.41697,-2.19554 -0.46356,0 -1.10119,0.988 -1.41697,2.19554 -0.31578,1.20756 -1.66461,2.59894 -2.99738,3.09196 l -2.42323,0.89641 2.86917,1.87995 c 1.57804,1.03397 2.86917,2.61053 2.86917,3.50346 0,0.89294 0.49466,1.62352 1.09924,1.62352 0.60458,0 1.09924,-0.73058 1.09924,-1.62352 z m -84.54451,-32.27346 c 2.19572,-0.81226 2.17402,-0.89278 -0.57864,-2.14698 -1.57296,-0.71669 -3.40361,-2.66945 -4.06812,-4.33947 l -1.20819,-3.03641 -1.09532,3.1294 c -0.65514,1.87182 -2.4799,3.73193 -4.54073,4.62873 -2.40328,1.04583 -2.80662,1.51234 -1.33349,1.54235 2.90602,0.0593 6.13151,3.20476 6.13647,5.98439 0.003,1.90447 0.38497,1.67823 2.20542,-1.3076 1.21072,-1.98578 3.22788,-3.99027 4.4826,-4.45441 z m 55.62122,-5.28678 c 0.90834,-1.38631 3.31093,-3.12061 5.33909,-3.854 l 3.68755,-1.33344 -4.25307,-1.90415 c -4.52141,-2.0243 -6.57642,-4.74562 -6.71254,-8.88903 -0.0688,-2.09646 -0.32061,-1.89045 -1.42696,1.16767 -1.60304,4.43109 -6.46366,8.89411 -9.81788,9.01479 -1.99221,0.0717 -1.83807,0.28795 0.88572,1.24268 4.61353,1.6171 6.8942,3.85981 8.50489,8.36326 1.23411,3.45053 1.43007,3.59456 1.76495,1.29713 0.20719,-1.42139 1.1199,-3.7186 2.02825,-5.10491 z m -101.1745,-21.2051 c 1.58555,-1.24719 3.92909,-2.29228 5.20786,-2.32241 1.68493,-0.0397 1.08121,-0.65863 -2.19287,-2.24807 -4.34155,-2.10767 -6.9374,-5.60414 -7.10172,-9.56566 -0.0428,-1.02957 -1.01779,0.24458 -2.16684,2.83145 -1.61429,3.63424 -3.15834,5.17829 -6.79258,6.79258 -3.38742,1.50465 -4.03498,2.11092 -2.31445,2.16683 3.28321,0.10674 8.73998,4.92612 9.73,8.5935 l 0.81691,3.02614 0.96542,-3.50337 c 0.53099,-1.92684 2.26272,-4.52379 3.84827,-5.77099 z m 62.52984,-20.95465 c 0.88756,0 1.61375,-0.49466 1.61375,-1.09924 0,-0.60458 -0.72619,-1.09923 -1.61375,-1.09923 -0.88757,0 -2.30934,-1.32758 -3.1595,-2.95017 -1.51688,-2.89509 -1.55996,-2.90539 -2.30685,-0.55218 -0.4186,1.3189 -1.96476,2.7001 -3.43592,3.06934 -3.23606,0.8122 -3.54909,2.63148 -0.45278,2.63148 1.31797,0 2.74428,1.14619 3.50562,2.81715 l 1.28358,2.81714 1.47605,-2.81714 c 0.81183,-1.54943 2.20223,-2.81715 3.0898,-2.81715 z"
     id="path2079" />
  <path
     style="fill:#ffd42a;fill-opacity:1;stroke-width:1.09924"
     d=""
     id="path12687" />
  <path
     style="fill:#e9561f;fill-opacity:1"
     d="m 1005.8015,705.70992 c -9.20694,6.32156 -20.43402,5.97265 -30.7786,8.7939 -2.23574,0.60974 -4.3154,1.78392 -6.59542,2.19847 -5.66073,1.02922 -12.94473,0 -18.68702,0 -2.83481,0 -7.14272,0.6876 -9.89313,0 -3.58998,-0.8975 -9.09584,-2.15012 -12.0916,-4.39695 -0.8291,-0.62182 -1.3098,-1.66526 -2.19848,-2.19847 -3.90078,-2.34047 -8.07027,-1.57428 -12.0916,-3.29771 -3.49948,-1.49978 -12.32324,-6.84275 -15.38931,-8.79389 -1.97939,-1.25961 -3.43648,-3.27347 -5.49619,-4.39695 -2.03443,-1.10969 -4.52268,-1.1621 -6.59542,-2.19847 -1.93339,-0.9667 -7.86503,-6.00458 -9.89313,-7.69466 -4.65465,-3.87887 -2.7093,-3.24229 -6.59542,-8.79389 -1.30404,-4.01278 -5.43072,-5.62439 -7.69465,-8.7939 -0.95245,-1.33342 -1.03978,-3.23824 -2.19848,-4.39694 -0.51818,-0.51819 -1.61221,0.43969 -2.19847,0 -1.05689,-0.79267 -1.2643,-2.36354 -2.19847,-3.29771 -0.57935,-0.57935 -1.61913,-0.51989 -2.19848,-1.09924 -1.99025,-1.99025 -3.93033,-5.34588 -5.49618,-7.69466 -0.45448,-0.68171 -1.83206,-0.36641 -2.19847,-1.09923 -0.67563,-1.35126 -0.50412,-3.00834 -1.09924,-4.39695 -1.34354,-3.13493 -4.79264,-5.27616 -5.49618,-8.79389 -0.21558,-1.07789 0.34761,-2.25488 0,-3.29771 -0.2591,-0.77728 -1.93938,-0.32196 -2.19848,-1.09924 -1.36876,-4.1063 0,-12.35007 0,-16.48855 0,-4.39694 -0.95383,-8.89859 0,-13.19084 0.28659,-1.28966 1.67806,-2.08341 2.19848,-3.29771 2.07105,-4.83245 -0.1994,-4.29761 3.29771,-8.79389 2.93843,-3.77799 8.56602,-7.97044 12.0916,-10.99237 20.20068,-17.31487 39.79246,-24.55527 65.9542,-28.58015 12.72843,-1.95822 37.55867,-6.20039 50.56488,-2.19847 7.42127,2.28346 13.38144,7.88525 18.68703,13.19084 11.28802,11.28801 15.38932,27.07323 15.38932,42.87023"
     id="path12756" />
  <path
     style="fill:#e9561f;fill-opacity:1"
     d="m 865.09924,654.0458 c -8.25629,-2.35894 -8.78762,-2.39024 -17.58779,-5.49618 -13.62953,-4.81042 -4.90179,-0.60391 -12.0916,-6.59542 -1.01491,-0.84576 -2.56489,-1.09924 -3.29771,-2.19847 -1.93159,-2.89739 -1.42869,-7.87734 -3.29771,-10.99237 -2.18401,-3.64001 -3.03825,-0.45755 -2.19848,-5.49618 0.79417,-4.76501 4.48636,-7.78407 7.69466,-10.99237 3.57184,-3.57184 6.78358,-9.28574 10.99237,-12.0916 4.8382,-3.22547 14.7085,-3.13034 19.78626,-1.09924 5.92686,2.37074 13.62481,17.16096 10.99236,23.08397 -1.69674,3.81767 -5.82631,6.15644 -7.69465,9.89313 -0.50134,1.00268 -1.50514,8.79389 -4.39695,8.79389"
     id="path12758" />
  <path
     style="fill:#ef233c;fill-opacity:1"
     d="m 1296,440.79389 c -23.084,0.36642 -46.251,3.0897 -69.2519,1.09924 -30.5525,-2.64397 -51.9029,-13.98692 -79.145,-25.28244 -3.6455,-1.51153 -7.5177,-2.52597 -10.9924,-4.39695 -1.3688,-0.73701 -2.1035,-2.30251 -3.2977,-3.29771 -1.8055,-1.50452 -7.4532,-4.55765 -8.7939,-5.49618 -3.8442,-2.6909 -6.9687,-6.37969 -10.9924,-8.7939 -8.5527,-5.13162 -2.9112,1.48572 -10.9923,-6.59542 -6.7062,-6.70613 -9.658,-14.60499 -13.1909,-23.08397 -8.6515,-20.76368 -16.4552,-32.61143 -15.3893,-56.06106 0.2003,-4.40764 -0.1983,-8.97377 1.0992,-13.19084 1.6867,-5.48164 5.1298,-10.25955 7.6947,-15.38932 2.1985,-4.39694 3.8685,-9.10053 6.5954,-13.19084 3.9496,-5.92436 18.4439,-21.31979 23.084,-26.38168 14.7628,-16.10488 24.3833,-24.45958 45.0687,-32.97709 22.3843,-9.21706 44.3393,-10.99237 68.1527,-10.99237 2.1984,0 4.4744,-0.57846 6.5954,0 3.1461,0.85804 8.6177,5.96765 10.9923,7.69466 8.4303,6.13111 15.4947,12.62546 21.9848,20.88549 2.2637,2.88117 4.1306,6.08266 6.5954,8.79389 1.2324,1.35562 3.0352,2.07213 4.3969,3.29771 10.5502,9.49517 20.0136,22.79332 34.0764,27.48092 0.7729,0.25765 5.7623,1.48571 7.6946,1.09924 3.061,-0.6122 11.1175,-5.18338 13.1909,0 0.4082,1.02061 0,2.19847 0,3.29771 0.3664,1.46565 0.5041,3.00834 1.0992,4.39694 0.5204,1.2143 1.6077,2.11607 2.1985,3.29771 0.9396,1.8792 2.6655,10.85563 2.1985,13.19084 -1.2169,6.08408 -1.2879,0.40933 -2.1985,7.69466 -1.0186,8.14893 0.2451,16.03796 -2.1985,24.18321 -1.366,4.55327 -4.7546,6.85047 -6.5954,10.99236 -0.7588,1.70732 -0.5084,3.72372 -1.0992,5.49619 -2.3945,7.18345 -2.9592,6.38337 -5.4962,12.0916 -2.7906,6.27869 -5.2641,14.22877 -6.5955,20.88549 -1.0116,5.05823 0.081,11.76741 -1.0992,16.48855 -1.882,7.52817 -6.3464,14.6422 -8.7939,21.98474 -1.5047,4.51428 -2.604,12.73165 -3.2977,17.58778 -0.3627,2.53911 0.9006,5.29308 0,7.69466 -0.7502,2.0005 -2.1985,3.66412 -3.2977,5.49618 z"
     id="path12760" />
</svg>
